<mxfile host="app.diagrams.net" modified="2024-07-04T09:40:30.375Z" agent="Mozilla/5.0 (Macintosh; Intel Mac OS X 10_15_7) AppleWebKit/605.1.15 (KHTML, like Gecko) Version/17.5 Safari/605.1.15" etag="FUg2-WA4rV9TnYQadJcJ" version="24.6.4" type="device">
  <diagram id="C5RBs43oDa-KdzZeNtuy" name="Page-1">
    <mxGraphModel dx="1659" dy="642" grid="1" gridSize="10" guides="1" tooltips="1" connect="1" arrows="1" fold="1" page="1" pageScale="1" pageWidth="827" pageHeight="1169" math="0" shadow="0">
      <root>
        <mxCell id="WIyWlLk6GJQsqaUBKTNV-0" />
        <mxCell id="WIyWlLk6GJQsqaUBKTNV-1" parent="WIyWlLk6GJQsqaUBKTNV-0" />
        <mxCell id="kRf2rMB7IYG2mLULR6Lo-13" style="edgeStyle=orthogonalEdgeStyle;rounded=0;orthogonalLoop=1;jettySize=auto;html=1;exitX=0.5;exitY=1;exitDx=0;exitDy=0;entryX=0.5;entryY=0;entryDx=0;entryDy=0;" edge="1" parent="WIyWlLk6GJQsqaUBKTNV-1" source="kRf2rMB7IYG2mLULR6Lo-1" target="kRf2rMB7IYG2mLULR6Lo-2">
          <mxGeometry relative="1" as="geometry" />
        </mxCell>
        <mxCell id="kRf2rMB7IYG2mLULR6Lo-1" value="Frontend Product Page" style="rounded=1;whiteSpace=wrap;html=1;" vertex="1" parent="WIyWlLk6GJQsqaUBKTNV-1">
          <mxGeometry x="350" y="110" width="120" height="30" as="geometry" />
        </mxCell>
        <mxCell id="kRf2rMB7IYG2mLULR6Lo-6" style="edgeStyle=orthogonalEdgeStyle;rounded=0;orthogonalLoop=1;jettySize=auto;html=1;exitX=0.5;exitY=1;exitDx=0;exitDy=0;entryX=0.5;entryY=0;entryDx=0;entryDy=0;" edge="1" parent="WIyWlLk6GJQsqaUBKTNV-1" source="kRf2rMB7IYG2mLULR6Lo-2" target="kRf2rMB7IYG2mLULR6Lo-4">
          <mxGeometry relative="1" as="geometry" />
        </mxCell>
        <mxCell id="kRf2rMB7IYG2mLULR6Lo-2" value="Fetch Data&lt;span style=&quot;caret-color: rgba(0, 0, 0, 0); color: rgba(0, 0, 0, 0); font-family: monospace; font-size: 0px; text-align: start; white-space: nowrap;&quot;&gt;%3CmxGraphModel%3E%3Croot%3E%3CmxCell%20id%3D%220%22%2F%3E%3CmxCell%20id%3D%221%22%20parent%3D%220%22%2F%3E%3CmxCell%20id%3D%222%22%20value%3D%22Frontend%20Product%20Page%22%20style%3D%22rounded%3D1%3BwhiteSpace%3Dwrap%3Bhtml%3D1%3B%22%20vertex%3D%221%22%20parent%3D%221%22%3E%3CmxGeometry%20x%3D%22350%22%20y%3D%22110%22%20width%3D%22120%22%20height%3D%2230%22%20as%3D%22geometry%22%2F%3E%3C%2FmxCell%3E%3C%2Froot%3E%3C%2FmxGraphModel%3E&lt;/span&gt;" style="rounded=1;whiteSpace=wrap;html=1;" vertex="1" parent="WIyWlLk6GJQsqaUBKTNV-1">
          <mxGeometry x="350" y="170" width="120" height="30" as="geometry" />
        </mxCell>
        <mxCell id="kRf2rMB7IYG2mLULR6Lo-5" style="edgeStyle=orthogonalEdgeStyle;rounded=0;orthogonalLoop=1;jettySize=auto;html=1;exitX=1;exitY=0.5;exitDx=0;exitDy=0;entryX=1;entryY=0.25;entryDx=0;entryDy=0;" edge="1" parent="WIyWlLk6GJQsqaUBKTNV-1" source="kRf2rMB7IYG2mLULR6Lo-4" target="kRf2rMB7IYG2mLULR6Lo-1">
          <mxGeometry relative="1" as="geometry">
            <Array as="points">
              <mxPoint x="520" y="290" />
              <mxPoint x="520" y="118" />
            </Array>
          </mxGeometry>
        </mxCell>
        <mxCell id="kRf2rMB7IYG2mLULR6Lo-10" value="NO" style="edgeLabel;html=1;align=center;verticalAlign=middle;resizable=0;points=[];" vertex="1" connectable="0" parent="kRf2rMB7IYG2mLULR6Lo-5">
          <mxGeometry x="-0.0372" y="-2" relative="1" as="geometry">
            <mxPoint as="offset" />
          </mxGeometry>
        </mxCell>
        <mxCell id="kRf2rMB7IYG2mLULR6Lo-8" style="edgeStyle=orthogonalEdgeStyle;rounded=0;orthogonalLoop=1;jettySize=auto;html=1;exitX=0.5;exitY=1;exitDx=0;exitDy=0;entryX=0.5;entryY=0;entryDx=0;entryDy=0;" edge="1" parent="WIyWlLk6GJQsqaUBKTNV-1" source="kRf2rMB7IYG2mLULR6Lo-4" target="kRf2rMB7IYG2mLULR6Lo-7">
          <mxGeometry relative="1" as="geometry" />
        </mxCell>
        <mxCell id="kRf2rMB7IYG2mLULR6Lo-9" value="YES" style="edgeLabel;html=1;align=center;verticalAlign=middle;resizable=0;points=[];" vertex="1" connectable="0" parent="kRf2rMB7IYG2mLULR6Lo-8">
          <mxGeometry x="-0.15" y="2" relative="1" as="geometry">
            <mxPoint as="offset" />
          </mxGeometry>
        </mxCell>
        <mxCell id="kRf2rMB7IYG2mLULR6Lo-4" value="Data Fetched ?" style="rhombus;whiteSpace=wrap;html=1;" vertex="1" parent="WIyWlLk6GJQsqaUBKTNV-1">
          <mxGeometry x="360" y="240" width="100" height="100" as="geometry" />
        </mxCell>
        <mxCell id="kRf2rMB7IYG2mLULR6Lo-27" style="edgeStyle=orthogonalEdgeStyle;rounded=0;orthogonalLoop=1;jettySize=auto;html=1;exitX=0;exitY=0.5;exitDx=0;exitDy=0;" edge="1" parent="WIyWlLk6GJQsqaUBKTNV-1" source="kRf2rMB7IYG2mLULR6Lo-7" target="kRf2rMB7IYG2mLULR6Lo-14">
          <mxGeometry relative="1" as="geometry" />
        </mxCell>
        <mxCell id="kRf2rMB7IYG2mLULR6Lo-28" style="edgeStyle=orthogonalEdgeStyle;rounded=0;orthogonalLoop=1;jettySize=auto;html=1;exitX=1;exitY=0.5;exitDx=0;exitDy=0;" edge="1" parent="WIyWlLk6GJQsqaUBKTNV-1" source="kRf2rMB7IYG2mLULR6Lo-7" target="kRf2rMB7IYG2mLULR6Lo-16">
          <mxGeometry relative="1" as="geometry" />
        </mxCell>
        <mxCell id="kRf2rMB7IYG2mLULR6Lo-29" style="edgeStyle=orthogonalEdgeStyle;rounded=0;orthogonalLoop=1;jettySize=auto;html=1;exitX=0.5;exitY=1;exitDx=0;exitDy=0;entryX=0.5;entryY=0;entryDx=0;entryDy=0;" edge="1" parent="WIyWlLk6GJQsqaUBKTNV-1" source="kRf2rMB7IYG2mLULR6Lo-7" target="kRf2rMB7IYG2mLULR6Lo-15">
          <mxGeometry relative="1" as="geometry" />
        </mxCell>
        <mxCell id="kRf2rMB7IYG2mLULR6Lo-7" value="User Interaction with Navigation" style="rhombus;whiteSpace=wrap;html=1;" vertex="1" parent="WIyWlLk6GJQsqaUBKTNV-1">
          <mxGeometry x="340" y="380" width="140" height="130" as="geometry" />
        </mxCell>
        <mxCell id="kRf2rMB7IYG2mLULR6Lo-12" style="edgeStyle=orthogonalEdgeStyle;rounded=0;orthogonalLoop=1;jettySize=auto;html=1;exitX=0.5;exitY=1;exitDx=0;exitDy=0;entryX=0.5;entryY=0;entryDx=0;entryDy=0;" edge="1" parent="WIyWlLk6GJQsqaUBKTNV-1" source="kRf2rMB7IYG2mLULR6Lo-11" target="kRf2rMB7IYG2mLULR6Lo-1">
          <mxGeometry relative="1" as="geometry" />
        </mxCell>
        <mxCell id="kRf2rMB7IYG2mLULR6Lo-11" value="" style="ellipse;whiteSpace=wrap;html=1;aspect=fixed;fillColor=#000000;" vertex="1" parent="WIyWlLk6GJQsqaUBKTNV-1">
          <mxGeometry x="395" y="40" width="30" height="30" as="geometry" />
        </mxCell>
        <mxCell id="kRf2rMB7IYG2mLULR6Lo-24" style="edgeStyle=orthogonalEdgeStyle;rounded=0;orthogonalLoop=1;jettySize=auto;html=1;exitX=0.5;exitY=1;exitDx=0;exitDy=0;entryX=0.5;entryY=0;entryDx=0;entryDy=0;" edge="1" parent="WIyWlLk6GJQsqaUBKTNV-1" source="kRf2rMB7IYG2mLULR6Lo-14" target="kRf2rMB7IYG2mLULR6Lo-17">
          <mxGeometry relative="1" as="geometry" />
        </mxCell>
        <mxCell id="kRf2rMB7IYG2mLULR6Lo-14" value="Go to Previous Page" style="rounded=1;whiteSpace=wrap;html=1;" vertex="1" parent="WIyWlLk6GJQsqaUBKTNV-1">
          <mxGeometry x="160" y="560" width="120" height="30" as="geometry" />
        </mxCell>
        <mxCell id="kRf2rMB7IYG2mLULR6Lo-26" style="edgeStyle=orthogonalEdgeStyle;rounded=0;orthogonalLoop=1;jettySize=auto;html=1;exitX=0.5;exitY=1;exitDx=0;exitDy=0;" edge="1" parent="WIyWlLk6GJQsqaUBKTNV-1" source="kRf2rMB7IYG2mLULR6Lo-15">
          <mxGeometry relative="1" as="geometry">
            <mxPoint x="410" y="650" as="targetPoint" />
          </mxGeometry>
        </mxCell>
        <mxCell id="kRf2rMB7IYG2mLULR6Lo-15" value="Go to Next Page" style="rounded=1;whiteSpace=wrap;html=1;" vertex="1" parent="WIyWlLk6GJQsqaUBKTNV-1">
          <mxGeometry x="350" y="560" width="120" height="30" as="geometry" />
        </mxCell>
        <mxCell id="kRf2rMB7IYG2mLULR6Lo-25" style="edgeStyle=orthogonalEdgeStyle;rounded=0;orthogonalLoop=1;jettySize=auto;html=1;exitX=0.5;exitY=1;exitDx=0;exitDy=0;" edge="1" parent="WIyWlLk6GJQsqaUBKTNV-1" source="kRf2rMB7IYG2mLULR6Lo-16">
          <mxGeometry relative="1" as="geometry">
            <mxPoint x="410" y="650" as="targetPoint" />
          </mxGeometry>
        </mxCell>
        <mxCell id="kRf2rMB7IYG2mLULR6Lo-16" value="Go to Specific Page" style="rounded=1;whiteSpace=wrap;html=1;" vertex="1" parent="WIyWlLk6GJQsqaUBKTNV-1">
          <mxGeometry x="540" y="560" width="120" height="30" as="geometry" />
        </mxCell>
        <mxCell id="kRf2rMB7IYG2mLULR6Lo-30" style="edgeStyle=orthogonalEdgeStyle;rounded=0;orthogonalLoop=1;jettySize=auto;html=1;exitX=0;exitY=0.5;exitDx=0;exitDy=0;entryX=0;entryY=0.5;entryDx=0;entryDy=0;" edge="1" parent="WIyWlLk6GJQsqaUBKTNV-1" source="kRf2rMB7IYG2mLULR6Lo-17" target="kRf2rMB7IYG2mLULR6Lo-4">
          <mxGeometry relative="1" as="geometry">
            <Array as="points">
              <mxPoint x="140" y="700" />
              <mxPoint x="140" y="290" />
            </Array>
          </mxGeometry>
        </mxCell>
        <mxCell id="kRf2rMB7IYG2mLULR6Lo-31" value="NO / ERROR" style="edgeLabel;html=1;align=center;verticalAlign=middle;resizable=0;points=[];" vertex="1" connectable="0" parent="kRf2rMB7IYG2mLULR6Lo-30">
          <mxGeometry x="0.1224" relative="1" as="geometry">
            <mxPoint as="offset" />
          </mxGeometry>
        </mxCell>
        <mxCell id="kRf2rMB7IYG2mLULR6Lo-32" style="edgeStyle=orthogonalEdgeStyle;rounded=0;orthogonalLoop=1;jettySize=auto;html=1;exitX=0.5;exitY=1;exitDx=0;exitDy=0;entryX=0.5;entryY=0;entryDx=0;entryDy=0;" edge="1" parent="WIyWlLk6GJQsqaUBKTNV-1" source="kRf2rMB7IYG2mLULR6Lo-17" target="kRf2rMB7IYG2mLULR6Lo-18">
          <mxGeometry relative="1" as="geometry" />
        </mxCell>
        <mxCell id="kRf2rMB7IYG2mLULR6Lo-34" value="YES" style="edgeLabel;html=1;align=center;verticalAlign=middle;resizable=0;points=[];" vertex="1" connectable="0" parent="kRf2rMB7IYG2mLULR6Lo-32">
          <mxGeometry x="0.4286" y="1" relative="1" as="geometry">
            <mxPoint as="offset" />
          </mxGeometry>
        </mxCell>
        <mxCell id="kRf2rMB7IYG2mLULR6Lo-33" style="edgeStyle=orthogonalEdgeStyle;rounded=0;orthogonalLoop=1;jettySize=auto;html=1;exitX=0.5;exitY=1;exitDx=0;exitDy=0;entryX=0.5;entryY=0;entryDx=0;entryDy=0;" edge="1" parent="WIyWlLk6GJQsqaUBKTNV-1" source="kRf2rMB7IYG2mLULR6Lo-17" target="kRf2rMB7IYG2mLULR6Lo-20">
          <mxGeometry relative="1" as="geometry" />
        </mxCell>
        <mxCell id="kRf2rMB7IYG2mLULR6Lo-35" value="NO More Page" style="edgeLabel;html=1;align=center;verticalAlign=middle;resizable=0;points=[];" vertex="1" connectable="0" parent="kRf2rMB7IYG2mLULR6Lo-33">
          <mxGeometry x="0.1059" y="2" relative="1" as="geometry">
            <mxPoint as="offset" />
          </mxGeometry>
        </mxCell>
        <mxCell id="kRf2rMB7IYG2mLULR6Lo-17" value="Data Fetched" style="rhombus;whiteSpace=wrap;html=1;" vertex="1" parent="WIyWlLk6GJQsqaUBKTNV-1">
          <mxGeometry x="360" y="650" width="100" height="100" as="geometry" />
        </mxCell>
        <mxCell id="kRf2rMB7IYG2mLULR6Lo-22" style="edgeStyle=orthogonalEdgeStyle;rounded=0;orthogonalLoop=1;jettySize=auto;html=1;exitX=0.5;exitY=1;exitDx=0;exitDy=0;entryX=0.5;entryY=0;entryDx=0;entryDy=0;" edge="1" parent="WIyWlLk6GJQsqaUBKTNV-1" source="kRf2rMB7IYG2mLULR6Lo-18" target="kRf2rMB7IYG2mLULR6Lo-21">
          <mxGeometry relative="1" as="geometry" />
        </mxCell>
        <mxCell id="kRf2rMB7IYG2mLULR6Lo-18" value="Show fetched Products" style="rounded=1;whiteSpace=wrap;html=1;" vertex="1" parent="WIyWlLk6GJQsqaUBKTNV-1">
          <mxGeometry x="230" y="810" width="130" height="30" as="geometry" />
        </mxCell>
        <mxCell id="kRf2rMB7IYG2mLULR6Lo-23" style="edgeStyle=orthogonalEdgeStyle;rounded=0;orthogonalLoop=1;jettySize=auto;html=1;exitX=0.5;exitY=1;exitDx=0;exitDy=0;" edge="1" parent="WIyWlLk6GJQsqaUBKTNV-1" source="kRf2rMB7IYG2mLULR6Lo-20">
          <mxGeometry relative="1" as="geometry">
            <mxPoint x="410" y="910" as="targetPoint" />
            <Array as="points">
              <mxPoint x="520" y="880" />
              <mxPoint x="411" y="880" />
            </Array>
          </mxGeometry>
        </mxCell>
        <mxCell id="kRf2rMB7IYG2mLULR6Lo-20" value="Show end page Message" style="rounded=1;whiteSpace=wrap;html=1;" vertex="1" parent="WIyWlLk6GJQsqaUBKTNV-1">
          <mxGeometry x="460" y="810" width="120" height="30" as="geometry" />
        </mxCell>
        <mxCell id="kRf2rMB7IYG2mLULR6Lo-21" value="" style="ellipse;whiteSpace=wrap;html=1;aspect=fixed;fillColor=#000000;" vertex="1" parent="WIyWlLk6GJQsqaUBKTNV-1">
          <mxGeometry x="395" y="920" width="30" height="30" as="geometry" />
        </mxCell>
      </root>
    </mxGraphModel>
  </diagram>
</mxfile>
